<?xml version="1.0" encoding="utf-8"?>
<!-- Generator: Adobe Illustrator 25.2.1, SVG Export Plug-In . SVG Version: 6.00 Build 0)  -->
<svg version="1.1" id="Calque_1" xmlns="http://www.w3.org/2000/svg" xmlns:xlink="http://www.w3.org/1999/xlink" x="0px" y="0px"
	 viewBox="0 0 40 40" style="enable-background:new 0 0 40 40;" xml:space="preserve">
<style type="text/css">
	.st0{fill:#FFFFFF;}
</style>
<path class="st0" d="M9.3059263,34.3344231c1.6242113-1.5438232,3.2492418-3.0870895,4.8750906-4.6298008
	c0.1728287-0.163063,0.2177305-0.3003387,0.1033688-0.5011539c-0.1421919-0.2497425-0.2593594-0.5110569-0.3610916-0.7746239
	c-0.0451288-0.1218853-0.0555801-0.2509384-0.0305195-0.3768196c0.1916552-0.9287643,0.1250019-1.826252-0.4590826-2.655983
	c-0.167099-0.2372894-0.3842449-0.451046-0.5893469-0.6680393c-0.4297323-0.4550667-0.8677654-0.9058189-1.1206942-1.4549198
	c-0.0942488-0.2047348-0.1690855-0.4167271-0.2363224-0.6291103c-0.1442966-0.4565392-0.0019884-0.870718,0.2842665-1.261755
	c0.1024342-0.1400204,0.2415857-0.1940498,0.4379168-0.1912041c0.3800354,0.0055885,0.7016039,0.1194286,0.9803734,0.32897
	c0.1390343,0.1045246,0.2074404,0.2213078,0.1644096,0.3900585c-0.0981073,0.3850555-0.0053787,0.7487392,0.2455616,1.0785904
	c0.0983419,0.1291351,0.1148281,0.2353287,0.0408096,0.3834896c-0.2818108,0.5629253-0.1969166,1.0855522,0.3004026,1.5464039
	c0.4594336,0.4257488,1.049715,0.4993877,1.6857185,0.4250641c0.2584238-0.030201,0.4648132-0.1590424,0.6528416-0.3070068
	c0.2152767-0.1694374,0.2331657-0.1659069,0.478611-0.0603027c0.1812477,0.0779533,0.3710308,0.1420803,0.556839,0.2128754
	c0.0679398,0.0257854,0.1350594,0.0527515,0.2033482,0.0795212c0.0002174,0.000267,0.0002174,0.000618,0,0.000885
	c-0.0479431,0.1996384-0.1052399,0.3805466-0.132719,0.5644951c-0.0495796,0.3242645,0.03508,0.4467335,0.3975754,0.5694962
	c0.1697884,0.0576553,0.3519707,0.092268,0.5314636,0.1266842c0.3195801,0.0611858,0.4319534,0.1458073,0.4724121,0.4231014
	c0.0768261,0.5271378,0.2967796,1.0145626,0.5871258,1.4787483c0.1108532,0.1772823,0.2689476,0.3431892,0.4443474,0.4799728
	c0.1465187,0.1147232,0.1853428,0.2316036,0.1846409,0.3864288c-0.0063152,1.2991467-0.0094337,2.5982933-0.0093555,3.897438
	c-0.0022621,1.4462929-0.0039768,2.8925858-0.005146,4.3388786c0,0.045887,0.0094738,0.1101112,0.0159054,0.2162094
	c0.0001793,0.0004044,0.0007191,0.0006104,0.0012054,0.0004578c0.0002537-0.0000801,0.0004539-0.000248,0.0005474-0.0004578
	c0.0105228-0.0196114,0.0626774-0.1542397,0.0680561-0.1640434l0.0007019-0.0011787
	c0.442831-1.7901688,0.8952465-3.5847473,1.3372574-5.3751068c0.1403217-0.5675354,0.2781868-1.1354637,0.4268093-1.7015285
	c0.0443172-0.168848,0.0049095-0.2890625-0.1525993-0.4104538c-0.4443493-0.3426971-0.8733788-0.6999054-1.3068542-1.0526066
	c-0.0406914-0.0330467-0.0707455-0.0752068-0.1087494-0.1164875c-0.0001755-0.000206-0.0001755-0.0004807,0-0.0006866
	c0.0148525-0.0353012,0.0194111-0.0702057,0.0412788-0.0936413c0.5176659-0.5550842,0.7873173-1.1938038,0.9107971-1.8826313
	c0.0505161-0.2817097,0.1580944-0.3607407,0.5035172-0.4269276c0.2070904-0.039711,0.4092693-0.0999146,0.6088753-0.1631603
	c0.2177334-0.069128,0.3157215-0.2157173,0.2981815-0.4063339c-0.0130978-0.1457081-0.0461884-0.2905312-0.0763569-0.4348679
	c-0.0163708-0.0784435-0.0452557-0.1548271-0.0737858-0.249939c-0.0002098-0.0003052-0.0002098-0.0006771,0-0.0009823
	c0.3095226-0.1196251,0.605835-0.2367992,0.9050655-0.3487778c0.1253529-0.0469685,0.2165623,0.0025501,0.3073025,0.0808945
	c0.5397663,0.4657555,1.1872311,0.455164,1.8384342,0.2362118c0.7016048-0.2360153,1.27458-0.9789677,0.8568916-1.8245831
	c-0.0922585-0.1871853-0.0687542-0.3162231,0.0503998-0.4736004c0.2280216-0.3014164,0.3095245-0.6373501,0.2221737-0.9868107
	c-0.0542545-0.2183666,0.0392914-0.3586826,0.2314129-0.485857c0.287426-0.190321,0.608057-0.2829838,0.974762-0.2761192
	c0.1520157,0.002943,0.2618141,0.0511837,0.3410969,0.1549263c0.287775,0.376524,0.447506,0.7756062,0.3357162,1.231163
	c-0.115181,0.4696751-0.3105774,0.9135647-0.6391602,1.3047028c-0.3305721,0.3932953-0.702774,0.7617779-1.0407104,1.1506615
	c-0.7185593,0.8257103-1.0181446,1.7368259-0.7366848,2.7502098c0.0496864,0.1744404,0.1326046,0.3410168,0.2455616,0.493309
	c1.5480499,2.0871086,3.1005402,4.1718616,4.6574764,6.2542591c0.0196438,0.0263748,0.0664177,0.0773621,0.1233654,0.140316
	c0.0004349,0.0003242,0.0011005,0.0002899,0.0014877-0.0000687c0.0001812-0.0001717,0.0002747-0.0003929,0.000267-0.000618
	l-0.056015-0.1821938l0,0c-0.8023987-2.0122566-1.5993462-4.026413-2.390831-6.0424614
	c-0.0793972-0.2008133-0.1996059-0.3101425-0.450779-0.3595619c-0.4542904-0.0895214-0.8986397-0.2134628-1.3497677-0.314949
	c-0.2208862-0.0498123-0.3029747-0.1658077-0.3365364-0.3491707c-0.1145954-0.626955,0.023386-1.2098846,0.4443493-1.7307472
	c0.3656521-0.4521255,0.7600689-0.8889542,1.163023-1.3185272c0.6478138-0.6904926,0.971489-1.4669819,0.9099808-2.343483
	c-0.0357819-0.5080185-0.2127018-0.9707317-0.7610073-1.2584229l0,0c-0.058466-0.0392208-0.0701599-0.0490265-0.1355267-0.0911903
	c-0.0003891-0.000288-0.0004253-0.0007839-0.0000858-0.0011063c0.0000286-0.0000267,0.0000572-0.0000496,0.0000858-0.0000725
	c0.3805027-0.3566208,0.8045063-0.6322498,1.3853149-0.6549988c0.2784214-0.0108852,0.562336,0.029417,0.8400536,0.0655003
	c0.2326984,0.0306892,0.3748913,0.1603184,0.4304352,0.3551502c0.1080475,0.3792706,0.1257038,0.7490311-0.0249062,1.1321278
	c-0.1609001,0.4091778-0.2689476,0.833456-0.3858814,1.2541046c-0.2084942,0.7504063,0.1434784,1.3237267,0.8315182,1.7809505
	c0.1232109,0.0800056,0.2548828,0.150404,0.393364,0.2103252c1.9009571,0.8448296,3.8030796,1.6880932,5.7063732,2.5297871l0,0
	c0.0050278,0.0007839,0.1135445,0.0392208,0.1350594,0.0464764c0.0004654,0.0001888,0.0010262,0.0000267,0.0012512-0.0003643
	c0.0001755-0.0003052,0.0000954-0.0006752-0.0001984-0.0009098c-0.0708618-0.0686378-0.2173805-0.2220898-0.2957268-0.2806301
	c-0.9017944-0.6742802-1.8051071-1.3470554-2.7099457-2.0183315c-0.5537987-0.4118252-1.1129761-0.8194351-1.6573029-1.2400856
	c-0.1789093-0.1382561-0.3507996-0.1826725-0.5806923-0.1176643c-0.2392464,0.0686378-0.4850407,0.1203136-0.7283802,0.1785564
	c-0.2295399,0.0549107-0.2601795,0.0427513-0.368576-0.1297245c-0.2412338-0.3838806-0.2200718-0.7870789-0.127224-1.1955681
	c0.0072517-0.0320644,0.0181255-0.0635395,0.0284157-0.0950146c0.1669807-0.5059586,0.4821167-0.9787731,0.4710083-1.5296383
	c-0.0000839-0.0004272,0.0002613-0.0008297,0.0007687-0.0009022c0.0004005-0.0000572,0.0007992,0.0001106,0.0009842,0.000412
	c0.269886,0.2990646,0.3644466,0.6256485,0.2836819,0.9797516c-0.0433807,0.1917934-0.1169338,0.3788795-0.1824169,0.5668488
	c-0.1066456,0.3073997-0.1711903,0.6182289-0.1341228,0.96632c-0.0000038,0.0003986,0.0003471,0.0007362,0.0008183,0.0007858
	c0.3843632,0.0680485,0.7165718-0.0635395,1.0821075-0.1825771c0.0002899-0.0001411,0.0006485-0.0001411,0.0009346,0L39,28.1590977
	l-0.0057297,0.0083351l-8.2381096-2.1893425c-0.0003414-0.0001316-0.0005989-0.0003834-0.0007019-0.0006866
	c-0.0252571-0.1438446-0.0534401-0.2716084-0.0687561-0.4003544c-0.0147324-0.1245289-0.0991592-0.1730652-0.2351551-0.1646328
	c-0.1456509,0.007967-0.2906952,0.0223999-0.4345245,0.0432415c-1.0991783,0.1674747-1.9129219,0.6569595-2.4035759,1.5072803
	c-0.1730633,0.2997513-0.14184,0.422121,0.2243938,0.5701809c0.293623,0.1186466,0.6165924,0.1863022,0.9717216,0.2896519
	c0.0002747,0.0000782,0.0004921,0.0002613,0.0005856,0.0004902c1.0195465,2.648138,2.055933,5.3403969,3.0921993,8.0321655
	c0.0002251,0.0003548,0.0000687,0.0007935-0.000349,0.0009842c-0.0004196,0.0001869-0.0009441,0.0000572-0.0011692-0.0002937
	l-6.6107407-6.3056412c-0.0001011-0.0002213-0.0001011-0.0004635,0-0.0006866
	c0.0799828-0.3032799,0.1699047-0.5766544,0.2205372-0.8550282c0.0541401-0.2972012-0.0209312-0.3824081-0.3648319-0.4602623
	c-1.2317829-0.2774925-2.394455-0.2139549-3.4172764,0.5062504c-0.0597534,0.0420647-0.1219616,0.0819721-0.1772709,0.1274681
	c-0.3374729,0.2801418-0.4247036,0.3171082-0.0569477,0.7400112c0.0907402,0.1043282,0.2121162,0.191206,0.326479,0.2796497
	c0.1143608,0.0884457,0.2366734,0.1677704,0.3705616,0.2616062c0.0001698,0.0002422,0.0001698,0.0005436,0,0.0007858
	c-0.7282639,2.9523296-1.455904,5.9019794-2.1829205,8.8489552C20.0084019,38.9996605,20.0079708,39,20.0074539,38.9999847
	c-0.000494-0.0000153-0.0008869-0.0003471-0.0009041-0.0007591c-0.7236652-2.932785-1.4516563-5.8829956-2.1839752-8.8506241
	c-0.0001945-0.0002365-0.0001945-0.0005474,0-0.0007839c0.0974064-0.0669727,0.2120018-0.1292343,0.3014565-0.2110119
	c0.195982-0.1789494,0.3851795-0.363781,0.5651417-0.5542011c0.1131916-0.1197224,0.0851269-0.2435665-0.0397587-0.352993
	c-0.5468998-0.4788952-1.1885166-0.8228664-1.9817944-0.9174881c-0.5942574-0.0708942-1.1868792-0.0172577-1.7671051,0.1109962
	c-0.3731365,0.082365-0.4527683,0.169241-0.3961725,0.4910545c0.0467739,0.2636642,0.1364622,0.521841,0.2212391,0.833456
	c0.0000515,0.000227,0.0000515,0.0004597,0,0.0006866c-2.1727476,2.0726604-4.3916845,4.1895409-6.6099215,6.3057365
	c-0.0002584,0.0003777-0.0008345,0.0005112-0.0012856,0.0002937c-0.000453-0.0002174-0.0006094-0.0006981-0.000351-0.0010796l0,0
	c1.0345516-2.6886292,2.0674686-5.3734398,3.0987473-8.0544243c0.0002289-0.0000591,0.000474-0.0000591,0.0007029,0
	c0.2595921-0.0599117,0.5028152-0.1145248,0.7442837-0.1726723c0.0555439-0.0134354,0.1083984-0.0367718,0.1601992-0.0588322
	c0.4231834-0.1830673,0.4696064-0.3029861,0.2518759-0.6602955c-0.5647907-0.9266071-1.5018997-1.3814774-2.7054987-1.4919853
	c-0.262167-0.0240211-0.3016901,0.0078449-0.3472929,0.2232685c-0.0219841,0.1036434-0.0323915,0.209053-0.0514517,0.336031
	c0.0000048,0.0003452-0.0002956,0.000639-0.0007019,0.0006866c-2.7477903,0.7321339-5.5023632,1.4638767-8.2637177,2.1952286
	c-0.0005003,0.0001068-0.0010103-0.0001431-0.0011394-0.0005627c-0.0000921-0.0002995,0.0000335-0.0006161,0.0003208-0.0008087
	l6.4011941-4.852972c0.0003014-0.0000992,0.0006347-0.0000992,0.000936,0c0.2752619,0.064127,0.523396,0.1323719,0.777142,0.1784573
	c0.2988834,0.054224,0.3636637,0.0117664,0.3358335-0.235918c-0.0272446-0.242487-0.0825558-0.4835033-0.1416063-0.7224598
	c-0.0432653-0.1753178-0.1207924-0.3444614-0.1685028-0.5196838c-0.1027851-0.3760376-0.0107584-0.7244205,0.2379608-1.0720215
	c0.0001793-0.0004082,0.0007181-0.0006142,0.0012016-0.0004635c0.0002556,0.0000801,0.0004578,0.000248,0.0005522,0.0004635
	c0.0070162,0.0517712,0.0060806,0.0923653,0.0070162,0.119133c0.011693,0.4118271,0.2158594,0.7629566,0.3820229,1.1389923
	c0.2287235,0.5174294,0.2677794,1.0518227,0.1709576,1.5924892c-0.0542574,0.3039665-0.2371426,0.5289001-0.5722733,0.694809
	c-1.9197078,0.9519119-3.8208184,1.9289169-5.733623,2.889843c-0.0149679,0.0075512,0,0-0.0818536,0.0490284
	c-0.0008187,0.0004902-0.036016,0.0196095-0.0350802,0.0196095c0.1225464-0.0196095,0.1754007-0.0392208,0.3143182-0.0644207
	c1.8901196-0.5094872,3.7797699-1.0200195,5.6689539-1.531599c0.3033257-0.0821686,0.3157215-0.1016827,0.2938547-0.367506
	c-0.0083017-0.098053-0.0412779-0.1980667-0.0246725-0.2923965c0.0218658-0.1240368,0.0392895-0.2761173,0.1314335-0.3595619
	c0.6931839-0.6275444,0.7824049-1.3641224,0.5771847-2.1525726c-0.0978289-0.3827744-0.2200031-0.7608871-0.3660021-1.1327171
	c-0.1492071-0.3743687-0.1200914-0.7372646-0.011693-1.1080074c0.0547256-0.1863022,0.1899004-0.2995548,0.4052935-0.3478947
	c0.8470697-0.1902237,1.5798931-0.0379467,2.1760216,0.5162525c0.027915,0.0256004,0.0521307,0.0538731,0.0721493,0.0842285
	c0.0002928,0.0003185,0.0002928,0.000761,0,0.0010796c-0.0701609,0.0485363-0.0666523,0.0490284-0.1052408,0.0681477
	c-0.5262022,0.2661171-0.7383204,0.7217751-0.784977,1.199295c-0.0864143,0.8836613,0.2174969,1.6767197,0.8718596,2.376627
	c0.3545427,0.3789768,0.7097883,0.7583485,1.0418806,1.1510525c0.3117456,0.3687801,0.5708704,0.7684479,0.6072378,1.2302799
	c0.0467739,0.6000881-0.01754,1.1787033-0.3884535,1.7268238c-1.2924709,1.9100876-2.5608521,3.8318424-3.8368349,5.7494793
	c-0.0539055,0.0809937-0.1003284,0.1654167-0.150259,0.2482719c0,0-0.1087494,0.1631622-0.1083984,0.1633568"/>
<path class="st0" d="M21.4393349,15.9988699h0.3470592c0.2163277-1.3117638,0.3119793-2.6486273,0.8152618-3.9768629
	c0.3696289,1.0805521,0.5692329,2.1375713,0.6982117,3.2101812c-0.1604328,0.0784426-0.303442,0.1452179-0.4430599,0.2168941
	c-0.3686943,0.1894398-0.5990524,0.4635983-0.6816082,0.8185511c-0.1098003,0.4725208-0.0701618,0.9383736,0.1052399,1.4328594
	c0.1268749-0.0353966,0.2314129-0.0638332,0.3353653-0.0938358c0.182766-0.0528526,0.3608589-0.1236458,0.5485363-0.1558075
	c0.2522278-0.0432434,0.3444862,0.0349064,0.3124466,0.2526836c-0.0474758,0.3224983-0.2504711,0.5813618-0.5240974,0.7998238
	c-0.3529072,0.2815113-0.3651848,0.2765102-0.7349319-0.002058c-0.2351551-0.1772823-0.4250546-0.378685-0.5324001-0.6326427
	c-0.0209312-0.0490284-0.0191746-0.1176643-0.1351757-0.121294c-0.1190376-0.0033321-0.1347084,0.0716782-0.1363449,0.1487484
	c-0.0065479,0.3103409-0.0239716,0.6210728-0.011692,0.9315109c0.0077171,0.1927738-0.0729675,0.2941608-0.2887096,0.3660336
	c-0.4434128,0.1480618-0.7507153,0.4277096-0.966692,0.7810955c-0.0334435,0.0546169-0.075655,0.1054077-0.1253529,0.1741447
	c-0.1209087-0.1604176-0.2181988-0.3006325-0.3282318-0.4333973c-0.2067394-0.249155-0.4820004-0.4216309-0.8318672-0.5111542
	c-0.2374935-0.0607929-0.2765503-0.1054077-0.276783-0.3151455c0-0.3184776,0.0099392-0.6373482,0.0133305-0.9556293
	c0.0008183-0.0798168,0.0168381-0.1744385-0.1211433-0.189539c-0.1310825-0.0144138-0.1459332,0.0661869-0.179142,0.1497288
	c-0.1355267,0.3409328-0.4382687,0.5731239-0.7703609,0.7777615c-0.0516853,0.031868-0.1785583,0.0307884-0.2322311-0.0008812
	c-0.3468266-0.2049332-0.6080551-0.4706593-0.7422962-0.8157101c-0.0042095-0.0109825-0.0079517-0.0222588-0.0109901-0.033535
	c-0.0891037-0.3325977,0.0217495-0.4314365,0.4139462-0.352993c0.1494408,0.0301018,0.2895279,0.0925617,0.4342918,0.1392345
	c0.0956535,0.0307903,0.1921234,0.0597153,0.3320923,0.1031532c0.0430336-0.1617889,0.1004467-0.2922993,0.1082821-0.4249649
	c0.0180073-0.308279,0.0449009-0.6202869,0.0081844-0.925724c-0.0547256-0.4549694-0.3649502-0.7813902-0.8492908-0.9903421
	c-0.0865307-0.0373592-0.1725941-0.0750113-0.2866058-0.1246262c0.1137772-1.0687847,0.3301048-2.1264906,0.6899109-3.2265549
	c0.5069084,1.32549,0.6052494,2.6554918,0.8154964,3.9784317h0.4209614c0-0.0950136-0.0011692-0.1822815,0-0.2694511
	c0.0223351-1.4294281,0.0217495-2.8594427,0.0730839-4.2880859c0.0756569-2.1076651,0.4644623-4.1757159,1.2300262-6.1890526
	c0.0143833-0.0379472,0.0341454-0.0745206,0.0701618-0.1527681c0.0447865,0.0970736,0.077877,0.1574745,0.1007977,0.2205229
	c0.440258,1.2053733,0.7108421,2.4408503,0.9352398,3.6850548c0.3975754,2.2055225,0.4367485,4.4252615,0.4013176,6.6486292
	C21.4376984,15.7641296,21.4393349,15.8764982,21.4393349,15.9988699z M20.9358177,18.9012585
	c0.1552868-0.1022701,0.2146912-0.2059135,0.2130527-0.3683872c-0.0141487-1.3717728-0.0154362-2.7437391-0.0279465-4.115509
	c-0.0067825-0.726676-0.0065479-1.4540396-0.0478268-2.179637c-0.0838413-1.4771795-0.2873077-2.9447489-0.5716877-4.4042792
	c-0.1227818-0.6299949-0.2536297-1.2589116-0.5106506-1.8637071c0,0.3235774-0.0005856,0.6465664,0,0.9699473
	c0.0090046,4.1237483,0.0157871,8.4326191,0.0261936,12.5566597"/>
<path class="st0" d="M14.4471588,0.9999853c0.1069946,0.2773939,0.1987877,0.4962499,0.2760801,0.7187338
	c0.4192076,1.2104729,0.6773987,2.4488916,0.8619194,3.6966248c0.1627722,1.1015348,0.3136158,2.2062082,0.3987446,3.3132358
	c0.1058264,1.3769684,0.1386824,2.7579565,0.2031145,4.1371803c0.0274792,0.5875387,0.0561275,1.1750755,0.0818539,1.7627125
	c0.0099392,0.225523,0.0135632,0.3109274-0.3187628,0.3697596c-0.5729761,0.1014853-1.0314732,0.3711329-1.3434534,0.7986469
	c-0.0287657,0.0392218-0.0712128,0.0718727-0.1273413,0.12747c-0.0633783-0.0706959-0.1151791-0.1252146-0.1628895-0.1819887
	c-0.3194628-0.3806438-0.7287312-0.6526461-1.2814779-0.7570715c-0.303093-0.0572634-0.343318-0.1035452-0.3336124-0.3700552
	c0.0392895-1.0857487,0.0730829-2.1716928,0.1228971-3.2571468c0.0584669-1.2731295,0.1026688-2.5473385,0.2041664-3.8182125
	c0.1714907-2.1602612,0.620266-4.2987194,1.338542-6.3782959C14.3794537,1.1258863,14.4009686,1.09245,14.4471588,0.9999853z
	 M14.5001297,15.3550501c0.1052408-0.0581465,0.1541195-0.0815802,0.1980858-0.1108017
	c0.3354826-0.2232685,0.6640673-0.4542828,1.0076199-0.6686287c0.1497927-0.093544,0.2031136-0.1916952,0.193758-0.3485813
	c-0.0546083-0.9132729-0.0977564-1.8271332-0.1413727-2.740798c-0.0436153-0.9136648-0.0734348-1.8279171-0.1274576-2.741189
	c-0.0825558-1.3952069-0.2669601-2.7826667-0.5156784-4.1632633c-0.1261721-0.7010827-0.3015728-1.3960874-0.4597845-2.0928571
	c-0.0340281-0.1496298-0.1169338-0.2914155-0.1551714-0.4402609L14.5001297,15.3550501z"/>
<path class="st0" d="M25.5129623,15.9759254c-0.1607838-0.1649265-0.2949066-0.3137722-0.4432964-0.4522238
	c-0.2689476-0.2509193-0.6099262-0.3989801-0.9996662-0.4766388c-0.3096409-0.061676-0.3495159-0.104722-0.3398113-0.3683872
	c0.0452557-1.2246914,0.0898037-2.4494791,0.1421909-3.6739759c0.0404587-0.9469042,0.0804482-1.8940058,0.1410217-2.8401251
	c0.1508446-2.3570161,0.6020927-4.6728487,1.3841476-6.942204c0.0127468-0.0370643,0.0298195-0.0731481,0.0692253-0.1690445
	c0.0574131,0.1310978,0.0952988,0.2104232,0.1271076,0.2913175c0.3826084,0.9720067,0.6178799,1.9724487,0.8195915,2.9795585
	c0.4396725,2.1953244,0.6448879,4.4077106,0.7124767,6.6315694c0.0371838,1.2248878,0.1107368,2.4488916,0.1676846,3.6732883
	c0.0026894,0.0570669,0,0.1144285,0.0046749,0.1714954c0.0098248,0.1357059-0.0536728,0.2059126-0.2241611,0.232583
	c-0.4413071,0.0698147-0.8291759,0.2382717-1.14291,0.5090952C25.7845993,15.6694088,25.6649761,15.8177643,25.5129623,15.9759254z
	 M25.5773926,15.4044676c0.4513664-0.3020058,0.8788738-0.5823412,1.2952766-0.8738546
	c0.0512161-0.0358877,0.0611553-0.1321754,0.0584679-0.1996365c-0.0092392-0.2692556-0.0350819-0.5380211-0.0467739-0.8071785
	c-0.065134-1.4113855-0.123951-2.8229666-0.1929417-4.2341547c-0.0744877-1.5265989-0.2583084-3.0453529-0.531229-4.5550857
	c-0.1403217-0.7733495-0.3391094-1.5394433-0.5145092-2.3079884c-0.0189457-0.0829532-0.0578823-0.1626709-0.0875835-0.2439575
	c-0.1027851,0.4107466-0.0668888,13.012414,0.0195274,13.2220526L25.5773926,15.4044676z"/>
<path class="st0" d="M23.8100548,22.7149601c-0.542572,0.2108154-1.0709972,0.4184933-1.6019936,0.6214638
	c-0.2938538,0.1122704-0.3532562,0.0900116-0.4815331-0.1636524c-0.0344009-0.0675507-0.0629654-0.137085-0.0854797-0.2080688
	c-0.0267773-0.0858955-0.0436153-0.1738491-0.071331-0.2880802c0.1383343-0.0460854,0.271637-0.0918789,0.4027195-0.1322746
	c0.6303902-0.1493359,1.1820869-0.4179058,1.6769485-0.7713871c0.8433285-0.6023445,1.5337029-1.2995071,1.8994732-2.1928749
	c0.0483551-0.1151371,0.0874195-0.2328701,0.1169338-0.3524036c0.0245571-0.1032505-0.0015182-0.1977749-0.1474552-0.2308197
	c-0.1441803-0.0327492-0.273859-0.0242176-0.349865,0.102272c-0.0400219,0.0653076-0.0736923,0.1332169-0.1006813,0.2030678
	c-0.4780216,1.2806778-1.6011715,2.1157036-2.937727,2.6844139c-0.1601982,0.0588322-0.3420315,0.1049175-0.557188,0.1690445
	c-0.0275974-0.2724915,0.0240879-0.5023289,0.1052399-0.7238331c0.0220985-0.0607929,0.143713-0.098053,0.2232285-0.1417847
	c0.382021-0.2095413,0.7907066-0.3913307,1.1430283-0.6313667c0.7687225-0.5238018,1.2027836-1.210865,1.262886-2.0479507
	c0.011692-0.1619835,0.0758896-0.259058,0.2689476-0.2983761c0.1481533-0.0301037,0.2912807-0.0775623,0.4347591-0.1167831
	c-0.2912807-0.9330788-1.1647797-1.3504944-2.4217014-1.1627197c-0.1483879-0.2241516-0.0858307-0.4561462-0.0015182-0.6778469
	c0.2026463-0.5331163,0.8719769-0.8914051,1.492424-0.8138437c0.6772804,0.0842276,1.1419754,0.5430193,1.1596336,1.1452665
	c0.0016346,0.0571651-0.0019875,0.1145267,0.0019875,0.1714954c0.0128632,0.1815968,0.0982227,0.2640591,0.2659073,0.2610188
	c0.1778545-0.0032349,0.2622814-0.082365,0.2764301-0.2555275c0.0106392-0.1300201,0.011694-0.2619019,0.0385876-0.3895683
	c0.1321373-0.6177368,0.8324528-1.0281897,1.550663-0.9034653c0.7339935,0.12747,1.3086052,0.8009014,1.0955524,1.4200115
	c-0.5762501-0.0565758-1.1585827-0.0739326-1.6402321,0.2843571c-0.3584003,0.266901-0.6050148,0.5919495-0.749548,1.0001469
	c0.1662807,0.1071739,0.3288193,0.2209148,0.5028172,0.3214207c0.1854572,0.1078587,0.2425194,0.2451344,0.1887283,0.424181
	c-0.2304745,0.7654076-0.5449123,1.5024757-1.1250191,2.1351185c-0.3421497,0.3726044-0.7220669,0.7219696-1.061058,1.0581951
	c0.1906033,0.1756134,0.3911438,0.3627987,0.5950756,0.5478268c0.2868385,0.2599411,0.5286579,0.5446892,0.6830082,0.8766003
	c0.1710739,0.367897,0.0194111,0.8517933-0.338171,1.0931015c-0.3684578,0.2486668-0.9071732,0.2666092-1.3111782,0.0436344
	c-0.2315292-0.12747-0.2419357-0.162672-0.130497-0.3784885c0.0476589-0.0894146,0.0890446-0.1810875,0.123951-0.2745495
	C24.4191628,23.5249805,24.3319302,23.2087574,23.8100548,22.7149601z"/>
<path class="st0" d="M18.4384613,22.6976051c-0.0721474,0.1863022-0.1286259,0.3746624-0.2181988,0.5517483
	c-0.0859451,0.1711025-0.1575089,0.1881638-0.366703,0.10923c-0.5145092-0.1942444-1.0255108-0.3950596-1.5380325-0.5931263
	c-0.043148-0.0166683-0.0865307-0.0329475-0.1299133-0.0490265c-0.7270956,0.5823383-0.5465488,1.2197857-0.1854572,1.8595867
	c-0.2475538,0.2879353-0.6795635,0.4200611-1.0900574,0.3333836c-0.4632912-0.0970726-0.735981-0.3537788-0.8223953-0.7428551
	c-0.046773-0.2110119-0.0249071-0.4174156,0.0861807-0.6212692c0.2321129-0.4255524,0.5926208-0.7638378,0.9905462-1.0799637
	c0.0975227-0.0774612,0.1969166-0.1532574,0.2816935-0.2192497c-0.3598061-0.3523064-0.7203131-0.6823559-1.049716-1.0329952
	c-0.6080561-0.6471558-0.9361715-1.4050121-1.1768227-2.1935596c-0.0542574-0.1780663,0.0021057-0.3170071,0.1897831-0.4230042
	c0.1685028-0.0953083,0.3265972-0.2035599,0.5092478-0.3187733c-0.1637068-0.4307499-0.4261065-0.8011951-0.8639069-1.0729027
	c-0.458148-0.2843571-0.9803734-0.276413-1.525053-0.2037563c-0.1130753-0.2122879-0.0569468-0.4118252,0.011694-0.6028347
	c0.2014771-0.5573359,0.8599319-0.9111147,1.5318336-0.8350248c0.6357698,0.0720692,1.1087666,0.5513544,1.1281776,1.1434031
	c0.0018711,0.0571651-0.0044432,0.1147232,0.0010519,0.1714954c0.0147343,0.1524754,0.1066437,0.2331734,0.2677794,0.2405262
	c0.1637068,0.0075512,0.256319-0.0640278,0.2769003-0.225523c0.0123949-0.0971718,0.0052614-0.1961079,0.0149679-0.2934742
	c0.0602207-0.6043053,0.5893469-1.0461359,1.281127-1.072217c0.6246605-0.0236311,1.2886105,0.4195719,1.4032059,0.957984
	c0.0362492,0.1708088,0.0106411,0.3431873-0.0010529,0.5491009c-0.654829-0.1176643-1.2249985-0.1176643-1.7458229,0.2272873
	c-0.3062487,0.2028732-0.6022091,0.5701828-0.7164536,0.924942c0.084075,0.0261803,0.1706057,0.0548115,0.2584238,0.0803051
	c0.4663324,0.1351185,0.39851,0.0561848,0.4499607,0.4588909c0.0898066,0.7027512,0.4510145,1.2933273,1.0492487,1.7845783
	c0.3788643,0.3111248,0.8104687,0.5653763,1.29282,0.7462883c0.2386627,0.0896187,0.3435516,0.2202282,0.3567657,0.4259434
	c0.0091209,0.1436481,0.0253754,0.2869053,0.0426807,0.4765434c-0.2211208-0.0653038-0.3912601-0.1044273-0.5612812-0.1693401
	c-0.5871258-0.2589588-1.1432629-0.5579243-1.6359062-0.9353333c-0.6197491-0.4749718-1.0212994-1.0637836-1.2966795-1.7205486
	c-0.03508-0.0844231-0.0701609-0.170908-0.124301-0.2474861c-0.0829058-0.118351-0.216445-0.1263924-0.3585196-0.0847187
	c-0.1395025,0.0408878-0.1572752,0.134922-0.1354094,0.2392502c0.0133781,0.0726414,0.034832,0.1440754,0.0640802,0.2133656
	c0.6812563,1.4987526,1.8572607,2.5841084,3.7017756,3.1095772c0.0736694,0.0209808,0.1513119,0.0555954,0.2238121,0.0791283
	C18.3363781,22.6522045,18.3555565,22.6545601,18.4384613,22.6976051z"/>
<path class="st0" d="M16.8737698,20.0658436c0.2043991-0.3117123,0.4759197-0.4895821,0.8561897-0.5432186
	c0.6713161-0.0948181,1.2014942,0.1063881,1.6166096,0.5464554c0.2104816,0.2228756,0.3545437,0.4620304,0.3471756,0.7593269
	c-0.0063133,0.2506256,0.1335392,0.3986855,0.328001,0.3922157c0.1838188-0.0060806,0.2978306-0.147768,0.3104591-0.3854504
	c0.0457211-0.8655205,1.0695953-1.5074768,2.0673923-1.2961712c0.3081226,0.0653038,0.5424557,0.2270927,0.738554,0.527235
	c-0.1006813,0.0127468-0.1889648,0.0274544-0.2780704,0.0346127c-0.6051311,0.048439-1.0802326,0.2827873-1.3714008,0.7298126
	c-0.4547539,0.6982403-0.5936737,1.4474678-0.3903236,2.2266045c0.0527382,0.2015018,0.1754017,0.3979034,0.3061333,0.5755749
	c0.1662788,0.2255249,0.2923336,0.2476845,0.5774174,0.1711044c0.0461884,0.6781387-0.5457287,0.9020939-1.262886,0.7582493
	c-0.0315723,0.2313099,0.2124672,0.7354031,0.4167519,0.8690491c0.1435947,0.0936413,0.3040276,0.1020737,0.4714775,0.0704994
	c0.1019669-0.0196095,0.2008915-0.0490265,0.3398113-0.0843258c0.0422134,0.1633568,0.0935459,0.302103,0.1052399,0.4433002
	c0.0039768,0.0458889-0.0841923,0.1215858-0.1489735,0.1418839c-0.1068764,0.0336304-0.2288399,0.0341225-0.3446045,0.0472622
	c-0.5175495,0.0588322-0.6533108,0.172575-0.8100014,0.5843029c-0.1917706,0.5041904-0.412426,1.000639-0.6232567,1.4997311
	c-0.0222168,0.0526562-0.0617428,0.1002102-0.1087494,0.1748295c-0.0479431-0.0686359-0.0935478-0.1165848-0.1169338-0.1711998
	c-0.2084923-0.4826202-0.4326553-0.960928-0.6127338-1.4511967c-0.1761036-0.4798737-0.2725735-0.5687103-0.8770046-0.6430359
	c-0.4876137-0.0604-0.5050373,0.0145111-0.3794498-0.4902687c0.0093555-0.0372601,0.0370693-0.0712852,0.0655994-0.124136
	c0.1018486,0.0233364,0.1925907,0.0453987,0.2840328,0.0647163c0.3094063,0.0655975,0.5225773,0.0047073,0.6638336-0.2285633
	c0.1299133-0.2147369,0.2221756-0.4456539,0.3481121-0.705986c-0.4333572,0.0469685-0.8143272,0.1058006-1.1199913-0.151886
	c-0.1965675-0.1657085-0.2462635-0.3745651-0.2604122-0.6024418c0.3325577,0.0731487,0.4677353,0.0481453,0.6305065-0.2048321
	c0.1457005-0.2260151,0.2799397-0.4740906,0.3267136-0.724617c0.1199741-0.642643,0.0015202-1.2701874-0.3196964-1.8643913
	c-0.3040295-0.5616512-0.8211098-0.8758163-1.5638733-0.9149399C17.0295258,20.0927105,16.9737492,20.0802574,16.8737698,20.0658436
	z"/>
</svg>
